<?xml version="1.0" encoding="UTF-8"?>
<!DOCTYPE svg PUBLIC "-//W3C//DTD SVG 1.1//EN" "http://www.w3.org/Graphics/SVG/1.1/DTD/svg11.dtd">
<!-- Creator: CorelDRAW -->
<svg xmlns="http://www.w3.org/2000/svg" xml:space="preserve" width="9.525mm" height="9.5251mm" version="1.1" style="shape-rendering:geometricPrecision; text-rendering:geometricPrecision; image-rendering:optimizeQuality; fill-rule:evenodd; clip-rule:evenodd"
viewBox="0 0 115.43 115.43"
 xmlns:xlink="http://www.w3.org/1999/xlink"
 xmlns:xodm="http://www.corel.com/coreldraw/odm/2003">
 <defs>
  <style type="text/css">
   <![CDATA[
    .fil0 {fill:#FEFEFE;fill-rule:nonzero}
   ]]>
  </style>
 </defs>
 <g id="Layer_x0020_1">
  <metadata id="CorelCorpID_0Corel-Layer"/>
  <path class="fil0" d="M23.25 49.99c9.23,18.15 24.08,32.99 42.26,42.23l14.11 -14.14c1.76,-1.76 4.3,-2.28 6.51,-1.57 7.18,2.37 14.91,3.65 22.89,3.65 3.56,0 6.41,2.85 6.41,6.41l0 22.45c0,3.56 -2.85,6.41 -6.41,6.41 -60.22,-0 -109.02,-48.8 -109.02,-109.02 0,-3.56 2.89,-6.41 6.41,-6.41l22.44 0c3.56,0 6.41,2.85 6.41,6.41 0,7.98 1.28,15.71 3.66,22.89 0.71,2.21 0.19,4.75 -1.57,6.51l-14.11 14.17z"/>
 </g>
</svg>
